<?xml version="1.0" standalone="no"?>
<!DOCTYPE svg PUBLIC "-//W3C//DTD SVG 20010904//EN"
 "http://www.w3.org/TR/2001/REC-SVG-20010904/DTD/svg10.dtd">
<svg version="1.0" xmlns="http://www.w3.org/2000/svg"
 width="300.000000pt" height="300.000000pt" viewBox="0 0 300.000000 300.000000"
 preserveAspectRatio="xMidYMid meet">
<metadata>
Created by potrace 1.16, written by Peter Selinger 2001-2019
</metadata>
<g transform="translate(0.000000,300.000000) scale(0.100000,-0.100000)"
fill="#000000" stroke="none">
<path d="M1356 1992 c-3 -5 -18 -7 -32 -4 -25 5 -26 3 -21 -24 6 -33 -14 -53
-55 -54 -16 0 -28 -5 -28 -10 0 -15 45 -30 119 -41 65 -9 88 -5 154 32 10 6
43 7 76 3 43 -5 66 -2 87 9 l29 15 -45 6 c-48 6 -78 7 -177 6 l-62 0 -3 32
c-3 32 -29 51 -42 30z"/>
<path d="M1729 1874 c-1 -5 -1 -17 0 -26 2 -14 -3 -16 -26 -9 -15 4 -89 3
-163 -1 -74 -5 -168 -7 -207 -4 -105 8 -167 -22 -79 -38 19 -4 39 -13 45 -20
6 -7 22 -11 35 -9 16 3 28 -2 37 -14 8 -11 26 -23 42 -27 36 -9 34 -18 -8 -51
-20 -14 -45 -36 -57 -48 -16 -17 -20 -18 -15 -4 4 9 2 17 -3 17 -6 0 -10 -8
-10 -18 0 -25 -36 -68 -43 -50 -2 7 -7 -2 -11 -19 -8 -33 -26 -46 -26 -18 0 8
-8 15 -17 15 -15 0 -16 2 -3 10 12 8 11 10 -7 10 -17 0 -23 -9 -33 -50 -11
-45 -28 -69 -27 -37 1 38 -4 61 -11 49 -10 -14 -50 -11 -60 5 -4 6 -18 -12
-32 -39 -23 -46 -25 -48 -28 -25 l-3 27 -24 -28 c-23 -26 -24 -26 -25 -5 0 12
-5 25 -12 29 -6 4 -8 3 -4 -4 3 -6 2 -13 -4 -17 -5 -3 -10 -1 -10 5 0 7 -7 10
-15 6 -8 -3 -15 -1 -15 5 0 6 -5 7 -11 3 -27 -17 -38 56 -17 117 6 19 22 49
34 68 l23 35 -36 12 c-27 9 -41 10 -50 2 -18 -14 -16 -2 3 28 11 16 13 29 8
34 -16 16 -80 -59 -104 -119 -45 -116 -64 -361 -35 -470 22 -83 107 -269 159
-347 53 -79 176 -192 243 -224 30 -14 84 -25 162 -33 115 -12 393 -12 441 -1
l25 6 -25 10 c-25 9 -25 9 -4 21 11 7 35 28 52 48 17 19 47 44 67 55 42 22
131 142 199 267 52 95 82 203 97 351 13 124 3 198 -40 306 -37 91 -72 136
-111 143 -42 9 -39 8 -105 38 -63 28 -154 47 -156 33z m366 -539 c-5 -87 -10
-109 -45 -188 -22 -50 -37 -94 -33 -100 4 -6 1 -7 -7 -2 -9 5 -10 2 -6 -12 7
-21 -30 -73 -52 -73 -7 0 -12 -5 -12 -11 0 -15 -62 -69 -72 -63 -11 7 -10 44
0 44 12 0 102 117 102 133 0 7 6 21 14 32 7 11 23 54 35 95 12 41 27 84 34 95
6 11 12 58 12 105 2 133 4 143 21 90 10 -32 12 -74 9 -145z"/>
</g>
</svg>
